<?xml version="1.0" standalone="no"?>
<!DOCTYPE svg PUBLIC "-//W3C//DTD SVG 20010904//EN" "http://www.w3.org/TR/2001/REC-SVG-20010904/DTD/svg10.dtd">
<svg version="1.0" xmlns="http://www.w3.org/2000/svg" width="40px" height="40px" viewBox="0 0 759.000000 853.000000" preserveAspectRatio="xMidYMid meet">
	<g transform="translate(0.000000,853.000000) scale(0.100000,-0.100000)" fill="#000000" stroke="none">
		<path d="M3732 8017 c-6 -7 -9 -23 -5 -35 4 -16 -8 -41 -47 -94 -58 -80 -111
-172 -147 -257 -14 -31 -21 -43 -18 -26 12 56 65 180 110 259 25 44 45 81 45
84 0 14 -36 -30 -74 -92 -60 -95 -93 -189 -116 -321 -33 -195 -32 -375 5 -950
47 -737 48 -1224 5 -1580 -18 -142 -59 -356 -94 -488 -32 -122 -35 -153 -9
-84 l12 32 -6 -40 c-7 -48 -10 -55 -26 -55 -7 0 -27 -46 -45 -102 -36 -113
-171 -456 -208 -530 -13 -26 -24 -56 -24 -66 0 -11 -7 -36 -16 -57 -8 -20 -24
-71 -34 -113 -25 -101 -51 -127 -123 -126 -54 1 -177 39 -257 79 -55 28 -128
98 -146 141 -7 18 -20 79 -29 137 -14 93 -14 113 -1 175 34 164 111 243 289
297 l87 26 0 77 c0 42 -5 131 -10 197 -5 66 -14 183 -20 260 -36 468 -94 848
-180 1180 -57 218 -173 513 -252 636 -79 124 -281 354 -387 441 -158 130 -293
272 -296 311 -1 15 -19 32 -56 54 -54 33 -54 33 -60 10 -9 -38 -9 -5141 1
-5157 8 -13 91 -15 581 -18 370 -2 577 -6 585 -13 7 -5 18 -33 24 -60 95 -396
299 -711 731 -1134 196 -192 218 -209 253 -195 38 14 306 275 462 450 120 135
274 351 338 476 52 101 112 263 138 371 17 72 26 93 42 99 12 4 274 9 583 11
l562 4 11 37 c7 25 10 874 10 2600 0 2232 -2 2562 -15 2562 -7 0 -18 -8 -24
-17 -5 -10 -13 -17 -18 -15 -13 6 -84 -42 -79 -54 6 -16 6 -16 -202 -229 -106
-109 -222 -234 -258 -279 -152 -189 -252 -367 -352 -629 -26 -70 -51 -125 -55
-121 -3 3 -3 -4 0 -17 4 -14 2 -20 -4 -16 -6 4 -8 -4 -6 -21 3 -19 2 -23 -5
-13 -7 10 -14 -1 -27 -44 -9 -31 -14 -64 -11 -71 3 -8 2 -14 -3 -14 -5 0 -11
-12 -14 -27 -2 -16 -14 -71 -26 -123 -35 -154 -78 -394 -100 -560 -18 -134
-28 -233 -56 -545 -26 -284 -32 -381 -24 -391 5 -6 33 -16 62 -23 138 -31 253
-123 298 -239 33 -83 33 -219 0 -282 -68 -130 -151 -186 -358 -240 -42 -11
-85 -18 -94 -15 -10 3 -27 20 -38 38 l-21 32 0 -27 c0 -35 29 -65 72 -73 36
-7 196 39 273 78 94 47 166 132 191 226 11 38 13 41 13 16 1 -81 -69 -195
-152 -250 -71 -47 -237 -105 -303 -105 -80 0 -134 56 -134 142 0 46 -30 135
-101 306 -203 483 -290 807 -334 1235 -22 210 -20 649 5 1077 10 190 27 473
36 630 17 308 15 655 -6 750 -16 74 -87 208 -160 305 -78 102 -95 134 -81 148
8 8 5 17 -11 34 -24 26 -50 30 -66 10z m1796 -1519 c3 -26 2 -27 -30 -22 -41
8 -50 16 -42 38 5 12 16 16 38 14 25 -2 32 -8 34 -30z m-3406 -83 c178 -310
282 -753 333 -1420 8 -110 17 -272 21 -360 l6 -160 -41 -29 c-23 -17 -41 -34
-41 -38 0 -14 60 24 81 51 10 13 19 21 19 17 0 -22 -38 -72 -110 -142 -96 -93
-132 -141 -160 -217 -48 -127 -181 -168 -267 -82 -36 36 -45 92 -18 115 13 11
15 116 15 799 0 892 9 1515 21 1549 8 20 15 23 46 20 37 -3 40 -7 95 -103z
m3407 28 l22 -18 -1 -1145 c0 -630 -3 -1155 -6 -1167 -4 -14 -2 -23 5 -23 6 0
13 10 15 23 3 12 7 31 9 42 3 11 5 0 6 -25 2 -87 -60 -144 -156 -143 -67 0
-119 32 -144 87 -10 23 -19 49 -19 59 0 41 -49 108 -146 204 -85 83 -104 106
-103 130 0 25 1 26 9 7 8 -21 128 -119 136 -111 2 2 -25 30 -61 62 l-65 57 0
79 c0 43 4 136 10 206 5 70 15 193 21 273 39 521 141 979 283 1275 62 131 75
145 126 145 21 0 47 -8 59 -17z m-635 -477 c-3 -15 -8 -25 -11 -23 -2 3 -1 17
3 31 3 15 8 25 11 23 2 -3 1 -17 -3 -31z m-1105 -1587 c18 -6 31 -18 31 -27 0
-43 135 -439 189 -557 11 -22 22 -51 26 -65 4 -14 16 -41 26 -60 18 -35 66
-149 76 -183 3 -10 11 -16 18 -13 19 7 16 -94 -3 -116 -8 -10 -40 -29 -69 -43
-108 -49 -240 -135 -208 -135 2 0 24 13 47 30 24 16 73 37 111 46 55 14 74 24
102 56 21 22 35 32 35 23 0 -30 -71 -94 -128 -115 -79 -29 -135 -64 -198 -121
-29 -27 -65 -51 -79 -55 -39 -10 -83 14 -116 63 -36 51 -69 73 -202 134 -109
49 -137 70 -137 100 0 21 0 21 18 1 9 -11 31 -23 47 -26 29 -6 28 -5 -7 14
-24 13 -38 28 -38 40 0 10 25 83 56 162 31 79 66 170 78 203 12 33 28 70 35
83 21 38 116 290 160 424 50 149 61 161 130 137z m-1643 -733 c0 -1 24 -48 52
-106 105 -216 221 -307 507 -395 66 -21 126 -42 133 -48 13 -10 10 -52 -9
-112 -25 -84 -38 -169 -26 -177 9 -6 9 -8 0 -8 -12 0 -18 -25 -27 -119 -5 -54
8 -62 17 -11 3 21 5 19 6 -8 1 -45 -23 -88 -62 -109 -27 -14 -79 -18 -317 -26
-310 -9 -368 -4 -431 37 -55 37 -85 116 -59 156 8 12 10 11 10 -6 0 -11 6 -28
13 -37 10 -14 11 69 9 425 -3 441 0 548 19 548 6 0 7 -10 3 -22 l-6 -23 23 22
c30 26 53 32 104 25 22 -2 40 -5 41 -6z m3366 -25 l33 -29 5 -434 c3 -238 1
-448 -3 -466 -5 -19 -6 -36 -3 -39 7 -8 36 59 30 69 -3 5 0 8 5 8 26 0 -1 -90
-40 -135 -56 -63 -79 -67 -420 -63 -276 3 -308 5 -343 22 -50 25 -79 70 -72
115 3 19 11 38 18 42 10 6 8 34 -10 128 -12 67 -29 140 -37 163 -26 74 -21 90
33 115 70 33 122 51 166 57 22 3 83 27 135 53 139 68 230 161 301 305 28 58
54 109 57 112 4 3 30 6 60 6 44 0 58 -5 85 -29z m18 19 c0 -5 -2 -10 -4 -10
-3 0 -8 5 -11 10 -3 6 -1 10 4 10 6 0 11 -4 11 -10z m-2203 -657 c96 -47 196
-186 210 -293 3 -22 9 -37 14 -34 14 8 11 -14 -6 -46 -25 -48 -67 -63 -183
-68 -148 -6 -204 3 -243 39 -26 24 -30 34 -26 62 3 17 11 61 17 97 13 80 38
171 61 228 17 40 21 42 59 42 25 0 64 -11 97 -27z m1009 -10 c44 -105 77 -311
55 -343 -9 -12 -43 -15 -201 -15 -104 0 -190 -1 -190 -3 0 -31 332 -46 377
-17 13 9 30 30 37 48 13 28 14 29 15 9 1 -35 -29 -80 -65 -97 -37 -17 -242
-21 -309 -5 -48 11 -95 59 -95 97 0 44 50 175 86 224 60 82 154 138 232 139
40 0 44 -2 58 -37z m-802 -763 l26 -9 -2 -298 -2 -298 -26 -29 c-36 -39 -63
-31 -131 39 -29 30 -54 53 -57 51 -7 -8 76 -123 93 -130 62 -23 134 23 136 86
0 30 1 31 9 10 15 -37 -11 -97 -52 -118 -56 -29 -125 -11 -164 43 -44 60 -135
235 -130 248 3 8 1 17 -4 20 -6 4 -10 15 -10 25 0 11 -9 28 -20 38 -12 11 -25
41 -30 68 -5 27 -16 78 -24 114 -34 144 -27 149 201 150 89 0 173 -4 187 -10z
m460 -1 c5 7 65 11 182 11 159 0 176 -2 193 -19 24 -24 21 -90 -10 -216 -38
-156 -202 -435 -285 -483 -72 -42 -157 -11 -157 58 0 17 5 36 11 42 9 9 12 3
12 -24 0 -63 63 -88 125 -50 32 20 133 156 187 252 38 68 26 57 -37 -35 -120
-173 -191 -230 -237 -189 -17 16 -18 39 -18 318 0 292 4 361 20 336 5 -9 9 -9
14 -1z" />
		<path d="M2195 4141 c-9 -22 -30 -52 -46 -67 -26 -25 -32 -27 -91 -21 l-63 5
35 -15 c71 -31 143 3 173 82 22 59 17 70 -8 16z" />
		<path d="M1977 4103 c9 -24 23 -33 53 -33 25 0 25 0 4 13 -12 6 -31 18 -43 25
-18 11 -20 10 -14 -5z" />
		<path d="M5294 4157 c3 -10 6 -29 6 -42 0 -35 53 -82 100 -90 49 -8 87 0 120
25 l25 19 -90 -6 -90 -5 -25 41 c-14 23 -31 49 -38 59 -13 16 -13 16 -8 -1z" />
		<path d="M3692 3114 c3 -18 55 -51 64 -41 3 2 -12 17 -32 32 -31 23 -35 25
-32 9z" />
		<path d="M3785 3110 c-18 -20 -15 -38 4 -25 15 9 33 45 23 45 -5 0 -17 -9 -27
-20z" />
		<path d="M1980 2666 c0 -9 7 -19 15 -23 25 -9 27 2 5 22 -18 17 -20 17 -20 1z" />
		<path d="M1993 2616 c2 -6 19 -19 38 -29 31 -17 58 -17 359 -11 304 6 370 12
370 31 0 5 -154 7 -342 5 -188 -1 -362 1 -385 7 -32 6 -43 6 -40 -3z" />
		<path d="M4720 2686 c0 -29 13 -46 34 -46 20 1 20 2 4 14 -10 7 -18 18 -18 24
0 6 -4 14 -10 17 -5 3 -10 0 -10 -9z" />
		<path d="M5477 2624 c-3 -3 -168 -6 -367 -5 -314 0 -360 -2 -350 -14 24 -29
88 -35 388 -35 315 0 337 3 371 44 12 14 10 16 -11 16 -14 0 -27 -3 -31 -6z" />
		<path d="M3125 2640 c3 -5 11 -10 16 -10 6 0 7 5 4 10 -3 6 -11 10 -16 10 -6
0 -7 -4 -4 -10z" />
		<path d="M3470 2619 c-25 -6 -109 -8 -188 -7 -78 2 -142 0 -142 -4 0 -18 36
-22 187 -20 154 1 203 9 203 34 0 9 1 9 -60 -3z" />
		<path d="M3980 2666 c0 -2 7 -9 15 -16 13 -11 14 -10 9 4 -5 14 -24 23 -24 12z" />
		<path d="M5555 7178 c-122 -114 -224 -233 -310 -363 -74 -111 -187 -318 -200
-365 -3 -14 20 25 52 85 33 61 72 130 88 155 75 115 217 290 340 419 74 78
135 144 135 146 0 15 -25 -3 -105 -77z" />
		<path d="M1870 7221 c0 -10 96 -105 127 -126 82 -55 49 2 -46 80 -69 56 -81
63 -81 46z" />
		<path d="M5017 6388 c-26 -63 -27 -84 -2 -29 14 29 24 56 21 58 -3 3 -11 -10
-19 -29z" />
		<path d="M4966 6255 c-9 -26 -7 -32 5 -12 6 10 9 21 6 23 -2 3 -7 -2 -11 -11z" />
		<path d="M4931 6159 c-6 -18 -11 -37 -10 -43 0 -6 7 7 15 28 8 22 12 41 10 43
-2 2 -9 -10 -15 -28z" />
		<path d="M2991 3466 l-12 -29 -72 6 -72 6 38 -20 c50 -26 94 -22 120 12 11 15
17 33 14 40 -3 9 -9 3 -16 -15z" />
	</g>
</svg>